<?xml version="1.0" encoding="UTF-8" standalone="no"?>
<!-- Created with Inkscape (http://www.inkscape.org/) -->

<svg
   width="9.5057802mm"
   height="19.120361mm"
   viewBox="0 0 9.5057802 19.120361"
   version="1.1"
   id="svg1"
   xml:space="preserve"
   inkscape:version="1.4.4 (dcaf3e7d9e, 2026-05-05)"
   sodipodi:docname="000source.svg"
   xmlns:inkscape="http://www.inkscape.org/namespaces/inkscape"
   xmlns:sodipodi="http://sodipodi.sourceforge.net/DTD/sodipodi-0.dtd"
   xmlns="http://www.w3.org/2000/svg"
   xmlns:svg="http://www.w3.org/2000/svg"><sodipodi:namedview
     id="namedview1"
     pagecolor="#ffffff"
     bordercolor="#000000"
     borderopacity="0.25"
     inkscape:showpageshadow="2"
     inkscape:pageopacity="0.0"
     inkscape:pagecheckerboard="0"
     inkscape:deskcolor="#d1d1d1"
     inkscape:document-units="mm"
     inkscape:zoom="1.4601735"
     inkscape:cx="420.84039"
     inkscape:cy="177.03375"
     inkscape:window-width="2560"
     inkscape:window-height="1368"
     inkscape:window-x="0"
     inkscape:window-y="0"
     inkscape:window-maximized="1"
     inkscape:current-layer="layer1"><inkscape:page
       x="1.2575737e-20"
       y="0"
       width="9.5057793"
       height="19.120361"
       id="page2"
       margin="0"
       bleed="0" /></sodipodi:namedview><defs
     id="defs1" /><g
     inkscape:label="Layer 1"
     inkscape:groupmode="layer"
     id="layer1"
     transform="translate(-16.631082,-133.91383)"><rect
       style="fill:#00112b;fill-opacity:1;stroke:#000000;stroke-width:0.264999;stroke-dasharray:none"
       id="rect212"
       width="166.34152"
       height="115.42435"
       x="0.029336158"
       y="106.22068"
       sodipodi:insensitive="true" /><g
       id="g40-4"
       inkscape:label="quality_server_unreachable"
       transform="translate(-22.018607,117.17305)"
       inkscape:export-filename="quality_offline_drk.png"
       inkscape:export-xdpi="96"
       inkscape:export-ydpi="96"
       style="fill:#002255;stroke:#e6e6e6"><rect
         style="fill:#002255;stroke:#e6e6e6;stroke-width:0.264583"
         id="rect33-9"
         width="9.2411957"
         height="18.855782"
         x="38.781982"
         y="16.873064"
         ry="1.2812769" /><circle
         style="fill:#002255;stroke:#e6e6e6;stroke-width:0.264583"
         id="circle33-2"
         cx="40.476254"
         cy="19.520479"
         r="0.44844693" /><circle
         style="fill:#002255;stroke:#e6e6e6;stroke-width:0.264583"
         id="circle34-0"
         cx="43.198967"
         cy="19.520479"
         r="0.44844693" /><circle
         style="fill:#002255;stroke:#e6e6e6;stroke-width:0.264583"
         id="circle35-6"
         cx="45.92168"
         cy="19.520479"
         r="0.44844693" /><rect
         style="fill:#002255;stroke:#e6e6e6;stroke-width:0.264583"
         id="rect35-8"
         width="6.9829593"
         height="1.0890855"
         x="39.643425"
         y="21.125296"
         ry="0.38438308" /><path
         style="fill:#002255;stroke:#e6e6e6;stroke-width:0.264583"
         d="m 40.073109,26.245299 5.957937,0.06407"
         id="path35-9" /><text
         xml:space="preserve"
         style="font-size:3.175px;writing-mode:lr-tb;direction:ltr;fill:#e6e6e6;stroke:#e6e6e6;stroke-width:0.264583"
         x="41.771782"
         y="25.253561"
         id="text35-2"><tspan
           sodipodi:role="line"
           id="tspan35-6"
           style="fill:#e6e6e6;stroke:#e6e6e6;stroke-width:0.264583"
           x="41.771782"
           y="25.253561">Q</tspan></text><path
         id="path36-6"
         style="fill:#d35f5f;fill-opacity:1;stroke:#e6e6e6;stroke-width:0.218251"
         d="m 40.524439,33.030547 v 1.131265 h 0.0073 a 2.7230497,0.43201902 0 0 0 2.720431,0.412953 2.7230497,0.43201902 0 0 0 2.715549,-0.412953 2.7230497,0.43201902 0 0 0 0.0077,-0.01873 2.7230497,0.43201902 0 0 0 -0.0077,-0.03223 v -1.080299 z" /><ellipse
         style="fill:#002255;stroke:#e6e6e6;stroke-width:0.215519"
         id="ellipse36-4"
         cx="43.246082"
         cy="32.921154"
         rx="2.7230496"
         ry="0.43201903" /><path
         id="path37-9"
         style="fill:#d35f5f;fill-opacity:1;stroke:#e6e6e6;stroke-width:0.218251"
         d="m 40.524439,31.491479 v 1.131265 h 0.0073 a 2.7230497,0.43201902 0 0 0 2.720431,0.412953 2.7230497,0.43201902 0 0 0 2.715549,-0.412953 2.7230497,0.43201902 0 0 0 0.0077,-0.01873 2.7230497,0.43201902 0 0 0 -0.0077,-0.03223 v -1.080299 z" /><ellipse
         style="fill:#002255;stroke:#e6e6e6;stroke-width:0.215519"
         id="ellipse37-5"
         cx="43.246082"
         cy="31.382082"
         rx="2.7230496"
         ry="0.43201903" /><path
         id="path38-0"
         style="fill:#d35f5f;fill-opacity:1;stroke:#e6e6e6;stroke-width:0.218251"
         d="m 40.549652,29.92541 v 1.131265 h 0.0073 a 2.7230497,0.43201902 0 0 0 2.72043,0.412953 2.7230497,0.43201902 0 0 0 2.71555,-0.412953 2.7230497,0.43201902 0 0 0 0.0077,-0.01873 2.7230497,0.43201902 0 0 0 -0.0077,-0.03223 v -1.080303 z" /><ellipse
         style="fill:#002255;stroke:#e6e6e6;stroke-width:0.215519"
         id="ellipse38-4"
         cx="43.271294"
         cy="29.816013"
         rx="2.7230496"
         ry="0.43201903" /><path
         id="path39-8"
         style="fill:#d35f5f;fill-opacity:1;stroke:#e6e6e6;stroke-width:0.218251"
         d="m 40.574866,28.33234 v 1.131265 h 0.0073 a 2.7230497,0.43201902 0 0 0 2.720431,0.412953 2.7230497,0.43201902 0 0 0 2.715549,-0.412953 2.7230497,0.43201902 0 0 0 0.0077,-0.01873 2.7230497,0.43201902 0 0 0 -0.0077,-0.03223 v -1.080303 z" /><ellipse
         style="fill:#002255;stroke:#e6e6e6;stroke-width:0.215519"
         id="ellipse39-7"
         cx="43.296509"
         cy="28.222944"
         rx="2.7230496"
         ry="0.43201903" /></g></g></svg>
